
<svg version="1.0" xmlns="http://www.w3.org/2000/svg"
 width="436.000000pt" height="223.000000pt" viewBox="0 0 436.000000 223.000000"
 preserveAspectRatio="xMidYMid meet">

<g transform="translate(0.000000,223.000000) scale(0.100000,-0.100000)"
fill="#000000" stroke="none">
<path d="M1760 1133 c-23 -59 -44 -114 -47 -120 -3 -8 3 -13 16 -13 12 0 24 7
27 15 8 21 80 20 92 -1 5 -9 18 -14 29 -12 19 3 18 9 -24 118 -24 63 -46 116
-48 118 -2 2 -22 -45 -45 -105z m64 -65 c-5 -8 -44 -11 -44 -4 0 3 5 17 11 33
l11 28 13 -25 c7 -14 11 -28 9 -32z"/>
<path d="M2030 1120 l0 -120 25 0 25 0 0 120 0 120 -25 0 -25 0 0 -120z"/>
<path d="M2390 1120 l0 -120 25 0 c22 0 25 4 25 35 0 35 0 35 45 35 45 0 45 0
45 -35 0 -31 3 -35 25 -35 l25 0 0 120 0 120 -25 0 c-24 0 -25 -2 -25 -65 l0
-65 -45 0 -45 0 0 65 c0 63 -1 65 -25 65 l-25 0 0 -120z"/>
<path d="M2763 1230 c-31 -13 -63 -68 -63 -108 0 -71 48 -122 115 -122 53 0
106 39 86 64 -12 14 -15 14 -38 -4 -14 -11 -35 -20 -47 -20 -28 0 -62 24 -69
50 -5 19 -1 20 84 20 83 0 89 1 89 20 0 29 -26 76 -52 94 -25 17 -70 20 -105
6z m88 -49 c32 -26 22 -33 -47 -29 l-59 3 23 23 c27 27 52 28 83 3z"/>
<path d="M3040 1120 l0 -120 70 0 c63 0 70 2 70 20 0 17 -7 20 -45 20 l-45 0
0 100 0 100 -25 0 -25 0 0 -120z"/>
<path d="M3310 1120 c0 -112 1 -120 19 -120 13 0 21 8 23 23 2 17 11 23 43 28
90 12 126 63 93 134 -17 37 -57 55 -123 55 l-55 0 0 -120z m130 60 c11 -11 20
-27 20 -35 0 -27 -38 -55 -75 -55 l-35 0 0 55 0 55 35 0 c22 0 43 -8 55 -20z"/>
<path d="M3669 1225 c-28 -15 -59 -70 -59 -103 0 -66 53 -122 115 -122 44 0
95 29 95 55 0 22 -27 25 -46 4 -22 -25 -69 -24 -94 1 -41 41 -28 50 69 50 l89
0 -9 38 c-16 75 -94 113 -160 77z m93 -42 c30 -27 21 -33 -44 -33 l-61 0 23
25 c27 29 56 32 82 8z"/>
<path d="M3960 1121 c0 -114 1 -121 20 -121 15 0 20 7 20 25 0 20 5 25 24 25
14 0 30 -10 40 -25 10 -16 26 -25 42 -25 l25 0 -21 29 c-20 29 -20 30 -2 43
48 34 51 97 6 139 -19 18 -39 24 -89 27 l-65 4 0 -121z m118 63 c28 -20 30
-69 3 -84 -11 -5 -33 -10 -50 -10 -31 0 -31 0 -31 55 0 53 1 55 28 55 15 0 38
-7 50 -16z"/>
<path d="M818 449 c26 -23 42 -29 78 -29 46 0 99 23 108 46 4 9 -24 12 -107
12 l-112 1 33 -30z"/>
</g>
</svg>
